<mxfile host="app.diagrams.net" agent="Mozilla/5.0 (Macintosh; Intel Mac OS X 10_15_7) AppleWebKit/537.36 (KHTML, like Gecko) Chrome/140.0.0.0 Safari/537.36" version="28.0.7">
  <diagram name="ページ1" id="VGCQdsbkr6lGMJfykXa1">
    <mxGraphModel dx="1737" dy="1113" grid="1" gridSize="10" guides="1" tooltips="1" connect="1" arrows="1" fold="1" page="1" pageScale="1" pageWidth="827" pageHeight="1169" math="0" shadow="0">
      <root>
        <mxCell id="0" />
        <mxCell id="1" parent="0" />
        <mxCell id="MT8V-w7RVy-5H_wmUK8j-6" value="" style="group" vertex="1" connectable="0" parent="1">
          <mxGeometry x="24" y="10" width="1702.3770491803277" height="1070" as="geometry" />
        </mxCell>
        <mxCell id="TuuLk8RfZ5QpmnDPU7iC-46" value="" style="group" parent="MT8V-w7RVy-5H_wmUK8j-6" connectable="0" vertex="1">
          <mxGeometry x="132.3770491803278" width="1570" height="1070" as="geometry" />
        </mxCell>
        <mxCell id="TuuLk8RfZ5QpmnDPU7iC-42" value="" style="group" parent="TuuLk8RfZ5QpmnDPU7iC-46" connectable="0" vertex="1">
          <mxGeometry x="693.6226798724956" width="62.7732240437158" height="100" as="geometry" />
        </mxCell>
        <mxCell id="TuuLk8RfZ5QpmnDPU7iC-37" value="" style="sketch=0;outlineConnect=0;fontColor=#232F3E;gradientColor=none;fillColor=#232F3D;strokeColor=none;dashed=0;verticalLabelPosition=bottom;verticalAlign=top;align=center;html=1;fontSize=12;fontStyle=0;aspect=fixed;pointerEvents=1;shape=mxgraph.aws4.user;" parent="TuuLk8RfZ5QpmnDPU7iC-42" vertex="1">
          <mxGeometry width="55.900305188199404" height="57.83316378433366" as="geometry" />
        </mxCell>
        <mxCell id="TuuLk8RfZ5QpmnDPU7iC-41" value="&lt;b style=&quot;&quot;&gt;&lt;font style=&quot;font-size: 14px;&quot;&gt;ユーザー&lt;/font&gt;&lt;/b&gt;" style="text;html=1;align=center;verticalAlign=middle;whiteSpace=wrap;rounded=0;" parent="TuuLk8RfZ5QpmnDPU7iC-42" vertex="1">
          <mxGeometry y="70" width="62.7732240437158" height="30" as="geometry" />
        </mxCell>
        <mxCell id="MT8V-w7RVy-5H_wmUK8j-1" value="" style="group" vertex="1" connectable="0" parent="TuuLk8RfZ5QpmnDPU7iC-46">
          <mxGeometry y="110" width="1400" height="960" as="geometry" />
        </mxCell>
        <mxCell id="OTsdc4DJzogi2TLPedJA-1" value="AWS Cloud" style="points=[[0,0],[0.25,0],[0.5,0],[0.75,0],[1,0],[1,0.25],[1,0.5],[1,0.75],[1,1],[0.75,1],[0.5,1],[0.25,1],[0,1],[0,0.75],[0,0.5],[0,0.25]];outlineConnect=0;gradientColor=none;html=1;whiteSpace=wrap;fontSize=12;fontStyle=0;container=0;pointerEvents=0;collapsible=0;recursiveResize=0;shape=mxgraph.aws4.group;grIcon=mxgraph.aws4.group_aws_cloud_alt;strokeColor=#232F3E;fillColor=none;verticalAlign=top;align=left;spacingLeft=30;fontColor=#232F3E;dashed=0;" parent="MT8V-w7RVy-5H_wmUK8j-1" vertex="1">
          <mxGeometry width="1400" height="960" as="geometry" />
        </mxCell>
        <mxCell id="TuuLk8RfZ5QpmnDPU7iC-31" value="" style="group" parent="MT8V-w7RVy-5H_wmUK8j-1" connectable="0" vertex="1">
          <mxGeometry x="32.35997267759564" y="30" width="64.71994535519126" height="90" as="geometry" />
        </mxCell>
        <mxCell id="TuuLk8RfZ5QpmnDPU7iC-28" value="" style="sketch=0;points=[[0,0,0],[0.25,0,0],[0.5,0,0],[0.75,0,0],[1,0,0],[0,1,0],[0.25,1,0],[0.5,1,0],[0.75,1,0],[1,1,0],[0,0.25,0],[0,0.5,0],[0,0.75,0],[1,0.25,0],[1,0.5,0],[1,0.75,0]];outlineConnect=0;fontColor=#232F3E;fillColor=#8C4FFF;strokeColor=#ffffff;dashed=0;verticalLabelPosition=bottom;verticalAlign=top;align=center;html=1;fontSize=12;fontStyle=0;aspect=fixed;shape=mxgraph.aws4.resourceIcon;resIcon=mxgraph.aws4.route_53;" parent="TuuLk8RfZ5QpmnDPU7iC-31" vertex="1">
          <mxGeometry width="57.83316378433367" height="57.83316378433367" as="geometry" />
        </mxCell>
        <mxCell id="TuuLk8RfZ5QpmnDPU7iC-30" value="&lt;b&gt;&lt;font face=&quot;Helvetica&quot; style=&quot;font-size: 14px;&quot;&gt;Route53&lt;/font&gt;&lt;/b&gt;" style="text;html=1;align=center;verticalAlign=middle;whiteSpace=wrap;rounded=0;" parent="TuuLk8RfZ5QpmnDPU7iC-31" vertex="1">
          <mxGeometry y="60" width="64.71994535519126" height="30" as="geometry" />
        </mxCell>
        <mxCell id="TuuLk8RfZ5QpmnDPU7iC-33" value="" style="group" parent="MT8V-w7RVy-5H_wmUK8j-1" connectable="0" vertex="1">
          <mxGeometry x="118.6532331511839" y="30" width="97.0799180327869" height="90" as="geometry" />
        </mxCell>
        <mxCell id="TuuLk8RfZ5QpmnDPU7iC-29" value="" style="outlineConnect=0;dashed=0;verticalLabelPosition=bottom;verticalAlign=top;align=center;html=1;shape=mxgraph.aws3.cloudwatch;fillColor=#759C3E;gradientColor=none;" parent="TuuLk8RfZ5QpmnDPU7iC-33" vertex="1">
          <mxGeometry x="16.179986338797814" width="64.71994535519126" height="60" as="geometry" />
        </mxCell>
        <mxCell id="TuuLk8RfZ5QpmnDPU7iC-32" value="&lt;span style=&quot;font-size: 14px;&quot;&gt;&lt;b&gt;Cloud watch&lt;br&gt;コスト監視&lt;/b&gt;&lt;/span&gt;" style="text;html=1;align=center;verticalAlign=middle;whiteSpace=wrap;rounded=0;" parent="TuuLk8RfZ5QpmnDPU7iC-33" vertex="1">
          <mxGeometry y="60" width="97.0799180327869" height="30" as="geometry" />
        </mxCell>
        <mxCell id="9FmBVdaXwqekVpdk2AMk-4" value="" style="group" parent="MT8V-w7RVy-5H_wmUK8j-1" vertex="1" connectable="0">
          <mxGeometry x="103.17196038251375" y="140" width="1250" height="810" as="geometry" />
        </mxCell>
        <mxCell id="OTsdc4DJzogi2TLPedJA-3" value="東京リージョン" style="points=[[0,0],[0.25,0],[0.5,0],[0.75,0],[1,0],[1,0.25],[1,0.5],[1,0.75],[1,1],[0.75,1],[0.5,1],[0.25,1],[0,1],[0,0.75],[0,0.5],[0,0.25]];outlineConnect=0;gradientColor=none;html=1;whiteSpace=wrap;fontSize=12;fontStyle=0;container=0;pointerEvents=0;collapsible=0;recursiveResize=0;shape=mxgraph.aws4.group;grIcon=mxgraph.aws4.group_region;strokeColor=#00A4A6;fillColor=none;verticalAlign=top;align=left;spacingLeft=30;fontColor=#147EBA;dashed=1;" parent="9FmBVdaXwqekVpdk2AMk-4" vertex="1">
          <mxGeometry width="1250" height="810" as="geometry" />
        </mxCell>
        <mxCell id="OTsdc4DJzogi2TLPedJA-2" value="VPC" style="points=[[0,0],[0.25,0],[0.5,0],[0.75,0],[1,0],[1,0.25],[1,0.5],[1,0.75],[1,1],[0.75,1],[0.5,1],[0.25,1],[0,1],[0,0.75],[0,0.5],[0,0.25]];outlineConnect=0;gradientColor=none;html=1;whiteSpace=wrap;fontSize=12;fontStyle=0;container=1;pointerEvents=0;collapsible=0;recursiveResize=0;shape=mxgraph.aws4.group;grIcon=mxgraph.aws4.group_vpc2;strokeColor=#8C4FFF;fillColor=none;verticalAlign=top;align=left;spacingLeft=30;fontColor=#AAB7B8;dashed=0;" parent="9FmBVdaXwqekVpdk2AMk-4" vertex="1">
          <mxGeometry x="32.36" y="40" width="1187.64" height="750" as="geometry" />
        </mxCell>
        <mxCell id="TuuLk8RfZ5QpmnDPU7iC-3" value="" style="fillColor=none;strokeColor=#147EBA;dashed=1;verticalAlign=top;fontStyle=0;fontColor=#147EBA;whiteSpace=wrap;html=1;" parent="OTsdc4DJzogi2TLPedJA-2" vertex="1">
          <mxGeometry x="21.58" y="60" width="538.42" height="660" as="geometry" />
        </mxCell>
        <mxCell id="TuuLk8RfZ5QpmnDPU7iC-4" value="Private subnet" style="points=[[0,0],[0.25,0],[0.5,0],[0.75,0],[1,0],[1,0.25],[1,0.5],[1,0.75],[1,1],[0.75,1],[0.5,1],[0.25,1],[0,1],[0,0.75],[0,0.5],[0,0.25]];outlineConnect=0;gradientColor=none;html=1;whiteSpace=wrap;fontSize=12;fontStyle=0;container=1;pointerEvents=0;collapsible=0;recursiveResize=0;shape=mxgraph.aws4.group;grIcon=mxgraph.aws4.group_security_group;grStroke=0;strokeColor=#00A4A6;fillColor=#E6F6F7;verticalAlign=top;align=left;spacingLeft=30;fontColor=#147EBA;dashed=0;" parent="OTsdc4DJzogi2TLPedJA-2" vertex="1">
          <mxGeometry x="37.753301457194915" y="520" width="496.1862477231333" height="180" as="geometry" />
        </mxCell>
        <mxCell id="TuuLk8RfZ5QpmnDPU7iC-9" value="" style="sketch=0;points=[[0,0,0],[0.25,0,0],[0.5,0,0],[0.75,0,0],[1,0,0],[0,1,0],[0.25,1,0],[0.5,1,0],[0.75,1,0],[1,1,0],[0,0.25,0],[0,0.5,0],[0,0.75,0],[1,0.25,0],[1,0.5,0],[1,0.75,0]];outlineConnect=0;fontColor=#232F3E;fillColor=#C925D1;strokeColor=#ffffff;dashed=0;verticalLabelPosition=bottom;verticalAlign=top;align=center;html=1;fontSize=12;fontStyle=0;aspect=fixed;shape=mxgraph.aws4.resourceIcon;resIcon=mxgraph.aws4.rds;" parent="TuuLk8RfZ5QpmnDPU7iC-4" vertex="1">
          <mxGeometry x="215.73315118397093" y="49" width="57.83316378433373" height="57.83316378433373" as="geometry" />
        </mxCell>
        <mxCell id="TuuLk8RfZ5QpmnDPU7iC-10" value="" style="fillColor=none;strokeColor=#DD3522;verticalAlign=top;fontStyle=0;fontColor=#DD3522;whiteSpace=wrap;html=1;" parent="OTsdc4DJzogi2TLPedJA-2" vertex="1">
          <mxGeometry x="91.68658925318768" y="550" width="388.31967213114814" height="125" as="geometry" />
        </mxCell>
        <mxCell id="TuuLk8RfZ5QpmnDPU7iC-7" value="Private subnet" style="points=[[0,0],[0.25,0],[0.5,0],[0.75,0],[1,0],[1,0.25],[1,0.5],[1,0.75],[1,1],[0.75,1],[0.5,1],[0.25,1],[0,1],[0,0.75],[0,0.5],[0,0.25]];outlineConnect=0;gradientColor=none;html=1;whiteSpace=wrap;fontSize=12;fontStyle=0;container=1;pointerEvents=0;collapsible=0;recursiveResize=0;shape=mxgraph.aws4.group;grIcon=mxgraph.aws4.group_security_group;grStroke=0;strokeColor=#00A4A6;fillColor=#E6F6F7;verticalAlign=top;align=left;spacingLeft=30;fontColor=#147EBA;dashed=0;" parent="OTsdc4DJzogi2TLPedJA-2" vertex="1">
          <mxGeometry x="37.753301457194915" y="295" width="496.1862477231333" height="180" as="geometry" />
        </mxCell>
        <mxCell id="TuuLk8RfZ5QpmnDPU7iC-17" value="" style="edgeStyle=orthogonalEdgeStyle;html=1;endArrow=block;elbow=vertical;startArrow=none;endFill=1;strokeColor=#545B64;rounded=0;entryX=0.25;entryY=0;entryDx=0;entryDy=0;exitX=0.25;exitY=1;exitDx=0;exitDy=0;" parent="OTsdc4DJzogi2TLPedJA-2" source="TuuLk8RfZ5QpmnDPU7iC-11" target="TuuLk8RfZ5QpmnDPU7iC-10" edge="1">
          <mxGeometry width="100" relative="1" as="geometry">
            <mxPoint x="333.30771857923463" y="482.3333333333335" as="sourcePoint" />
            <mxPoint x="225.44114298724978" y="482.3333333333335" as="targetPoint" />
            <Array as="points" />
          </mxGeometry>
        </mxCell>
        <mxCell id="TuuLk8RfZ5QpmnDPU7iC-21" value="" style="edgeStyle=orthogonalEdgeStyle;html=1;endArrow=block;elbow=vertical;startArrow=none;endFill=1;strokeColor=#545B64;rounded=0;entryX=0.25;entryY=0;entryDx=0;entryDy=0;exitX=0.25;exitY=1;exitDx=0;exitDy=0;" parent="OTsdc4DJzogi2TLPedJA-2" edge="1">
          <mxGeometry width="100" relative="1" as="geometry">
            <mxPoint x="366.7463570127507" y="550" as="sourcePoint" />
            <mxPoint x="366.7463570127507" y="455" as="targetPoint" />
            <Array as="points" />
          </mxGeometry>
        </mxCell>
        <mxCell id="TuuLk8RfZ5QpmnDPU7iC-22" value="Public subnet" style="points=[[0,0],[0.25,0],[0.5,0],[0.75,0],[1,0],[1,0.25],[1,0.5],[1,0.75],[1,1],[0.75,1],[0.5,1],[0.25,1],[0,1],[0,0.75],[0,0.5],[0,0.25]];outlineConnect=0;gradientColor=none;html=1;whiteSpace=wrap;fontSize=12;fontStyle=0;container=1;pointerEvents=0;collapsible=0;recursiveResize=0;shape=mxgraph.aws4.group;grIcon=mxgraph.aws4.group_security_group;grStroke=0;strokeColor=#7AA116;fillColor=#F2F6E8;verticalAlign=top;align=left;spacingLeft=30;fontColor=#248814;dashed=0;" parent="OTsdc4DJzogi2TLPedJA-2" vertex="1">
          <mxGeometry x="43.14150728597454" y="140" width="485.40414389799713" height="126" as="geometry" />
        </mxCell>
        <mxCell id="TuuLk8RfZ5QpmnDPU7iC-50" value="&lt;div style=&quot;&quot;&gt;&lt;span style=&quot;background-color: transparent; font-size: 14px;&quot;&gt;&lt;font color=&quot;#232f3e&quot;&gt;&lt;b&gt;MYSQL&lt;br&gt;RDS&lt;/b&gt;&lt;/font&gt;&lt;/span&gt;&lt;/div&gt;" style="text;whiteSpace=wrap;html=1;align=center;" parent="OTsdc4DJzogi2TLPedJA-2" vertex="1">
          <mxGeometry x="253.486452641166" y="629" width="64.89071038251369" height="40" as="geometry" />
        </mxCell>
        <mxCell id="TuuLk8RfZ5QpmnDPU7iC-11" value="" style="fillColor=none;strokeColor=#DD3522;verticalAlign=top;fontStyle=0;fontColor=#DD3522;whiteSpace=wrap;html=1;" parent="OTsdc4DJzogi2TLPedJA-2" vertex="1">
          <mxGeometry x="301.50483834244164" y="322" width="208.64959016393487" height="125" as="geometry" />
        </mxCell>
        <mxCell id="9FmBVdaXwqekVpdk2AMk-6" value="" style="fillColor=none;strokeColor=#DD3522;verticalAlign=top;fontStyle=0;fontColor=#DD3522;whiteSpace=wrap;html=1;" parent="OTsdc4DJzogi2TLPedJA-2" vertex="1">
          <mxGeometry x="63.03364071038257" y="322" width="208.64959016393487" height="125" as="geometry" />
        </mxCell>
        <mxCell id="9FmBVdaXwqekVpdk2AMk-14" value="" style="group" parent="OTsdc4DJzogi2TLPedJA-2" vertex="1" connectable="0">
          <mxGeometry x="81.76229508196722" y="333" width="172.34323770491807" height="107" as="geometry" />
        </mxCell>
        <mxCell id="9FmBVdaXwqekVpdk2AMk-12" value="" style="sketch=0;outlineConnect=0;fontColor=#232F3E;gradientColor=none;fillColor=#8C4FFF;strokeColor=none;dashed=0;verticalLabelPosition=bottom;verticalAlign=top;align=center;html=1;fontSize=12;fontStyle=0;aspect=fixed;pointerEvents=1;shape=mxgraph.aws4.elastic_network_interface;" parent="9FmBVdaXwqekVpdk2AMk-14" vertex="1">
          <mxGeometry x="56.96977576112415" width="57.98575788402854" height="57.98575788402854" as="geometry" />
        </mxCell>
        <mxCell id="9FmBVdaXwqekVpdk2AMk-13" value="&lt;span style=&quot;font-size: 14px;&quot;&gt;&lt;b&gt;EC2 Instance Connect Endpoint&lt;/b&gt;&lt;/span&gt;" style="text;html=1;align=center;verticalAlign=middle;whiteSpace=wrap;rounded=0;" parent="9FmBVdaXwqekVpdk2AMk-14" vertex="1">
          <mxGeometry y="60" width="172.34323770491807" height="47" as="geometry" />
        </mxCell>
        <mxCell id="TuuLk8RfZ5QpmnDPU7iC-12" value="&lt;b style=&quot;forced-color-adjust: none; color: rgb(35, 47, 62); font-family: Helvetica; font-size: 14px; font-style: normal; font-variant-ligatures: normal; font-variant-caps: normal; letter-spacing: normal; orphans: 2; text-align: center; text-indent: 0px; text-transform: none; widows: 2; word-spacing: 0px; -webkit-text-stroke-width: 0px; white-space: normal; background-color: rgb(236, 236, 236); text-decoration-thickness: initial; text-decoration-style: initial; text-decoration-color: initial;&quot;&gt;Rails&lt;br style=&quot;forced-color-adjust: none;&quot;&gt;EC2&lt;/b&gt;" style="sketch=0;points=[[0,0,0],[0.25,0,0],[0.5,0,0],[0.75,0,0],[1,0,0],[0,1,0],[0.25,1,0],[0.5,1,0],[0.75,1,0],[1,1,0],[0,0.25,0],[0,0.5,0],[0,0.75,0],[1,0.25,0],[1,0.5,0],[1,0.75,0]];outlineConnect=0;fontColor=#232F3E;fillColor=#ED7100;strokeColor=#ffffff;dashed=0;verticalLabelPosition=bottom;verticalAlign=top;align=center;html=1;fontSize=12;fontStyle=0;aspect=fixed;shape=mxgraph.aws4.resourceIcon;resIcon=mxgraph.aws4.ec2;" parent="OTsdc4DJzogi2TLPedJA-2" vertex="1">
          <mxGeometry x="376.62630919854286" y="333" width="57.98575788402859" height="57.98575788402859" as="geometry" />
        </mxCell>
        <mxCell id="9FmBVdaXwqekVpdk2AMk-17" style="edgeStyle=orthogonalEdgeStyle;rounded=0;orthogonalLoop=1;jettySize=auto;html=1;entryX=0;entryY=0.5;entryDx=0;entryDy=0;entryPerimeter=0;" parent="OTsdc4DJzogi2TLPedJA-2" source="9FmBVdaXwqekVpdk2AMk-12" target="TuuLk8RfZ5QpmnDPU7iC-12" edge="1">
          <mxGeometry relative="1" as="geometry" />
        </mxCell>
        <mxCell id="TuuLk8RfZ5QpmnDPU7iC-49" value="" style="group" parent="OTsdc4DJzogi2TLPedJA-2" connectable="0" vertex="1">
          <mxGeometry x="564.3086020036429" y="-20" width="53.93328779599284" height="72" as="geometry" />
        </mxCell>
        <mxCell id="TuuLk8RfZ5QpmnDPU7iC-36" value="" style="group" parent="TuuLk8RfZ5QpmnDPU7iC-49" connectable="0" vertex="1">
          <mxGeometry width="53.93328779599278" height="72" as="geometry" />
        </mxCell>
        <mxCell id="TuuLk8RfZ5QpmnDPU7iC-5" value="" style="sketch=0;outlineConnect=0;fontColor=#232F3E;gradientColor=none;fillColor=#8C4FFF;strokeColor=none;dashed=0;verticalLabelPosition=bottom;verticalAlign=top;align=center;html=1;fontSize=12;fontStyle=0;aspect=fixed;pointerEvents=1;shape=mxgraph.aws4.internet_gateway;" parent="TuuLk8RfZ5QpmnDPU7iC-36" vertex="1">
          <mxGeometry width="48.19430315361144" height="40.16191929467624" as="geometry" />
        </mxCell>
        <mxCell id="TuuLk8RfZ5QpmnDPU7iC-35" value="&lt;span style=&quot;font-size: 14px;&quot;&gt;&lt;b&gt;IGW&lt;/b&gt;&lt;/span&gt;" style="text;html=1;align=center;verticalAlign=middle;whiteSpace=wrap;rounded=0;" parent="TuuLk8RfZ5QpmnDPU7iC-36" vertex="1">
          <mxGeometry y="42" width="53.933287795992726" height="30" as="geometry" />
        </mxCell>
        <mxCell id="MT8V-w7RVy-5H_wmUK8j-3" value="" style="group" vertex="1" connectable="0" parent="9FmBVdaXwqekVpdk2AMk-4">
          <mxGeometry x="308.3054417122041" y="102" width="342.29644808743154" height="218" as="geometry" />
        </mxCell>
        <mxCell id="TuuLk8RfZ5QpmnDPU7iC-23" value="&lt;font style=&quot;font-size: 14px;&quot;&gt;ALB&lt;/font&gt;" style="sketch=0;outlineConnect=0;fontColor=#232F3E;gradientColor=none;strokeColor=#ffffff;fillColor=#232F3E;dashed=0;verticalLabelPosition=middle;verticalAlign=bottom;align=center;html=1;whiteSpace=wrap;fontSize=10;fontStyle=1;spacing=3;shape=mxgraph.aws4.productIcon;prIcon=mxgraph.aws4.elastic_load_balancing;" parent="MT8V-w7RVy-5H_wmUK8j-3" vertex="1">
          <mxGeometry x="288.3631602914388" y="97" width="53.933287795992726" height="74" as="geometry" />
        </mxCell>
        <mxCell id="MT8V-w7RVy-5H_wmUK8j-4" value="" style="fillColor=none;strokeColor=#147EBA;dashed=1;verticalAlign=top;fontStyle=0;fontColor=#147EBA;whiteSpace=wrap;html=1;" vertex="1" parent="9FmBVdaXwqekVpdk2AMk-4">
          <mxGeometry x="660.4509904371585" y="102" width="538.42" height="660" as="geometry" />
        </mxCell>
        <mxCell id="MT8V-w7RVy-5H_wmUK8j-5" value="Public subnet" style="points=[[0,0],[0.25,0],[0.5,0],[0.75,0],[1,0],[1,0.25],[1,0.5],[1,0.75],[1,1],[0.75,1],[0.5,1],[0.25,1],[0,1],[0,0.75],[0,0.5],[0,0.25]];outlineConnect=0;gradientColor=none;html=1;whiteSpace=wrap;fontSize=12;fontStyle=0;container=1;pointerEvents=0;collapsible=0;recursiveResize=0;shape=mxgraph.aws4.group;grIcon=mxgraph.aws4.group_security_group;grStroke=0;strokeColor=#7AA116;fillColor=#F2F6E8;verticalAlign=top;align=left;spacingLeft=30;fontColor=#248814;dashed=0;" vertex="1" parent="9FmBVdaXwqekVpdk2AMk-4">
          <mxGeometry x="686.4509904371585" y="180" width="485" height="130" as="geometry" />
        </mxCell>
        <mxCell id="cxdGnn8fO9U32kSsdw6v-10" value="" style="edgeStyle=orthogonalEdgeStyle;rounded=0;orthogonalLoop=1;jettySize=auto;html=1;" parent="9FmBVdaXwqekVpdk2AMk-4" source="TuuLk8RfZ5QpmnDPU7iC-35" target="TuuLk8RfZ5QpmnDPU7iC-23" edge="1">
          <mxGeometry relative="1" as="geometry" />
        </mxCell>
        <mxCell id="TuuLk8RfZ5QpmnDPU7iC-27" value="" style="edgeStyle=orthogonalEdgeStyle;html=1;endArrow=none;elbow=vertical;startArrow=openThin;startFill=0;strokeColor=#545B64;rounded=0;exitX=0.5;exitY=0;exitDx=0;exitDy=0;entryX=0.589;entryY=0.938;entryDx=0;entryDy=0;entryPerimeter=0;" parent="9FmBVdaXwqekVpdk2AMk-4" source="TuuLk8RfZ5QpmnDPU7iC-11" target="TuuLk8RfZ5QpmnDPU7iC-23" edge="1">
          <mxGeometry width="100" relative="1" as="geometry">
            <mxPoint x="302.0264116575596" y="250" as="sourcePoint" />
            <mxPoint x="409.89298724954506" y="250" as="targetPoint" />
            <Array as="points">
              <mxPoint x="438" y="320" />
              <mxPoint x="624" y="320" />
              <mxPoint x="624" y="268" />
            </Array>
          </mxGeometry>
        </mxCell>
        <mxCell id="9FmBVdaXwqekVpdk2AMk-3" value="" style="group" parent="MT8V-w7RVy-5H_wmUK8j-1" vertex="1" connectable="0">
          <mxGeometry x="9.714139344262318" y="502" width="87.36885245901637" height="150" as="geometry" />
        </mxCell>
        <mxCell id="9FmBVdaXwqekVpdk2AMk-1" value="" style="sketch=0;outlineConnect=0;fontColor=#232F3E;gradientColor=none;fillColor=#8C4FFF;strokeColor=none;dashed=0;verticalLabelPosition=bottom;verticalAlign=top;align=center;html=1;fontSize=12;fontStyle=0;aspect=fixed;pointerEvents=1;shape=mxgraph.aws4.endpoint;" parent="9FmBVdaXwqekVpdk2AMk-3" vertex="1">
          <mxGeometry x="14.483405207837691" y="9.997058823529413" width="57.98575788402845" height="57.98575788402845" as="geometry" />
        </mxCell>
        <mxCell id="9FmBVdaXwqekVpdk2AMk-2" value="&lt;span style=&quot;font-size: 14px;&quot;&gt;&lt;b&gt;EC2 Instance Connect Endpoint&lt;/b&gt;&lt;/span&gt;&lt;div&gt;&lt;span style=&quot;font-size: 14px;&quot;&gt;&lt;b&gt;Service&lt;/b&gt;&lt;/span&gt;&lt;/div&gt;" style="text;html=1;align=center;verticalAlign=middle;whiteSpace=wrap;rounded=0;" parent="9FmBVdaXwqekVpdk2AMk-3" vertex="1">
          <mxGeometry y="79.41176470588235" width="87.36885245901637" height="60.78529411764706" as="geometry" />
        </mxCell>
        <mxCell id="9FmBVdaXwqekVpdk2AMk-19" style="edgeStyle=orthogonalEdgeStyle;rounded=0;orthogonalLoop=1;jettySize=auto;html=1;" parent="MT8V-w7RVy-5H_wmUK8j-1" source="9FmBVdaXwqekVpdk2AMk-1" target="9FmBVdaXwqekVpdk2AMk-12" edge="1">
          <mxGeometry relative="1" as="geometry" />
        </mxCell>
        <mxCell id="TuuLk8RfZ5QpmnDPU7iC-40" style="edgeStyle=orthogonalEdgeStyle;rounded=0;orthogonalLoop=1;jettySize=auto;html=1;exitX=0.5;exitY=1;exitDx=0;exitDy=0;" parent="TuuLk8RfZ5QpmnDPU7iC-46" source="TuuLk8RfZ5QpmnDPU7iC-41" target="TuuLk8RfZ5QpmnDPU7iC-5" edge="1">
          <mxGeometry relative="1" as="geometry" />
        </mxCell>
        <mxCell id="9FmBVdaXwqekVpdk2AMk-22" value="" style="group" parent="MT8V-w7RVy-5H_wmUK8j-6" vertex="1" connectable="0">
          <mxGeometry y="607" width="87.3688524590163" height="137.78529411764703" as="geometry" />
        </mxCell>
        <mxCell id="9FmBVdaXwqekVpdk2AMk-20" value="" style="sketch=0;pointerEvents=1;shadow=0;dashed=0;html=1;strokeColor=none;fillColor=#505050;labelPosition=center;verticalLabelPosition=bottom;verticalAlign=top;outlineConnect=0;align=center;shape=mxgraph.office.users.administrator;" parent="9FmBVdaXwqekVpdk2AMk-22" vertex="1">
          <mxGeometry x="14.483606557377035" y="14" width="58.40163934426224" height="60" as="geometry" />
        </mxCell>
        <mxCell id="9FmBVdaXwqekVpdk2AMk-21" value="&lt;span style=&quot;font-size: 14px;&quot;&gt;&lt;b&gt;System&lt;br&gt;Administrator&lt;/b&gt;&lt;/span&gt;" style="text;html=1;align=center;verticalAlign=middle;whiteSpace=wrap;rounded=0;" parent="9FmBVdaXwqekVpdk2AMk-22" vertex="1">
          <mxGeometry y="74" width="87.3688524590163" height="60.78529411764706" as="geometry" />
        </mxCell>
        <mxCell id="9FmBVdaXwqekVpdk2AMk-23" style="edgeStyle=orthogonalEdgeStyle;rounded=0;orthogonalLoop=1;jettySize=auto;html=1;" parent="MT8V-w7RVy-5H_wmUK8j-6" source="9FmBVdaXwqekVpdk2AMk-20" target="9FmBVdaXwqekVpdk2AMk-1" edge="1">
          <mxGeometry relative="1" as="geometry" />
        </mxCell>
      </root>
    </mxGraphModel>
  </diagram>
</mxfile>
